<?xml version="1.0" standalone="no"?><!DOCTYPE svg PUBLIC "-//W3C//DTD SVG 1.1//EN" "http://www.w3.org/Graphics/SVG/1.1/DTD/svg11.dtd"><svg t="1553671564848" class="icon" style="" viewBox="0 0 1024 1024" version="1.1" xmlns="http://www.w3.org/2000/svg" p-id="7687" xmlns:xlink="http://www.w3.org/1999/xlink" width="48" height="48"><defs><style type="text/css"></style></defs><path d="M512 96C282.2 96 96 282.2 96 512s186.2 416 416 416 416-186.2 416-416S741.8 96 512 96z m109.2 72.8c54.2 17.2 104 47.2 145.4 88.6 41.4 41.4 71.4 91.2 88.6 145.4l-177.6 12c-16.4-28-39.8-51.4-67.8-68l11.4-178z m-363.8 88.6c41.4-41.4 91-71.4 145.4-88.6l11.4 178c-27.8 16.6-51.2 40-67.8 67.8l-177.8-11.8c17.4-54.2 47.4-104 88.8-145.4z m145.4 597.8c-54.2-17.2-104-47.2-145.4-88.6-41.4-41.4-71.4-91.2-88.6-145.4l178-11.4c16.4 27.8 39.8 51 67.6 67.6l-11.6 177.8zM512 648c-75 0-136-61-136-136s61-136 136-136 136 61 136 136-61 136-136 136z m254.6 118.6c-41.4 41.4-91.2 71.4-145.4 88.6l-11.8-177.8c28.2-16.6 51.6-40.2 68.2-68.4l177.6 12c-17.2 54.4-47.2 104.2-88.6 145.6z" p-id="7688" fill="#cccccc"></path></svg>