<?xml version="1.0" standalone="no"?><!DOCTYPE svg PUBLIC "-//W3C//DTD SVG 1.1//EN" "http://www.w3.org/Graphics/SVG/1.1/DTD/svg11.dtd"><svg t="1553671681344" class="icon" style="" viewBox="0 0 1024 1024" version="1.1" xmlns="http://www.w3.org/2000/svg" p-id="11235" xmlns:xlink="http://www.w3.org/1999/xlink" width="48" height="48"><defs><style type="text/css"></style></defs><path d="M923.284 928.469l-71.307-62.668c-18.749-17.963-43.268-27.812-69.238-27.812-0.274 0-0.548 0.002-0.822 0.004-26.599 0.212-51.565 10.73-70.298 29.615l-41.232 41.569c-6.108 6.157-14.249 9.568-22.921 9.602-0.046 0.001-0.090 0.001-0.135 0.001-8.622 0-16.737-3.342-22.862-9.418l-42.854-42.513c-18.83-18.677-43.806-28.993-70.329-29.046-0.068 0-0.135 0-0.205 0-26.446 0-51.385 10.212-70.239 28.767l-44.327 43.625c-12.558 12.358-32.991 12.358-45.55 0l-44.327-43.625c-18.855-18.556-43.792-28.767-70.239-28.767-0.067 0-0.137 0-0.205 0-26.21 0.052-50.909 10.126-69.658 28.389l-69.709 62.501c-13.915 12.475-15.081 33.868-2.606 47.781 12.475 13.914 33.867 15.081 47.781 2.606l70.283-63.012c0.423-0.38 0.838-0.769 1.243-1.17 12.559-12.459 33.034-12.498 45.642-0.092l44.327 43.625c18.85 18.55 43.796 28.767 70.244 28.767s51.393-10.217 70.244-28.767l44.33-43.625c12.607-12.407 33.082-12.366 45.642 0.091l42.854 42.512c18.894 18.742 43.919 29.049 70.516 29.047 0.138 0 0.278 0 0.416-0.001 26.75-0.108 51.857-10.626 70.694-29.618l41.232-41.568c12.51-12.612 33.026-12.775 45.734-0.367 0.423 0.414 0.858 0.815 1.302 1.205l71.907 63.195c6.427 5.649 14.391 8.422 22.323 8.421 9.394 0 18.741-3.889 25.43-11.501 12.336-14.037 10.957-35.418-3.081-47.755z" p-id="11236" fill="#cccccc"></path><path d="M935.467 441.31l-119.659-51.852v-151.613c0-13.963-8.576-26.493-21.594-31.545l-212.97-82.662v-22.177c0-38.011-30.814-68.823-68.823-68.823v0c-38.011 0-68.823 30.814-68.823 68.823v21.834l-219.626 85.185c-13.021 5.051-21.601 17.581-21.601 31.548v151.322l-115.293 49.961c-17.803 7.714-24.225 29.699-13.378 45.785l178.314 286.229c3.746 5.554 9.509 9.481 16.089 10.752 31.716 6.124 60.962 21.412 84.473 44.55l3.262 3.211c9.934 9.776 25.873 9.777 35.807 0l3.262-3.21c31.178-30.683 72.436-47.582 116.177-47.582h0.336c43.865 0.089 85.173 17.149 116.321 48.045l1.286 1.277c10.009 9.929 26.17 9.863 36.098-0.145 24.459-24.657 55.342-40.687 88.907-46.517 6.798-1.181 12.86-4.981 16.718-10.701l178.097-285.906c10.848-16.086 4.423-38.071-13.378-45.787zM535.495 267.989c-15.454-6.697-32.991-6.697-48.445 0l-217.004 94.035v-98.827l241.951-93.844 236.138 91.654v99.125l-212.639-92.143z" p-id="11237" fill="#cccccc"></path></svg>